<svg id="Layer_1" enable-background="new 0 0 511.848 511.848" height="512" viewBox="0 0 511.848 511.848" width="512" xmlns="http://www.w3.org/2000/svg"><g><g><g><path d="m426.781 360h-341.715l.5-149.825 170.965-30.467 169.75 30.467z" fill="#ff8fb4"/><path d="m426.281 210.175h-40l.5 149.825h40z" fill="#ff73a1"/><path d="m85.566 135.467h340.715v74.708h-340.715z" fill="#ffe4b0"/><path d="m386.281 135.467h40v74.708h-40z" fill="#ffdd9c"/><path d="m197.851 162.149h116.146v48.027h-116.146z" fill="#fff"/><g><path d="m256.283 169.42c88.319-.074 177.776-11.822 248.141-35.263l-18.543-32.343h-25.355c-21.898 0-42.034-12.691-52.447-33.055l-10.912-21.34c-92.484 21.72-190.002 21.72-282.486 0l-10.912 21.34c-10.413 20.365-30.549 33.055-52.447 33.055h-25.355l-18.543 32.343c70.365 23.442 159.822 35.19 248.141 35.263z" fill="#8a8894"/><g><path d="m485.881 101.814h-25.355c-21.898 0-42.034-12.691-52.447-33.055l-10.912-21.34c-12.003 2.819-24.091 5.264-36.241 7.351l7.153 13.989c10.413 20.365 30.549 33.055 52.447 33.055h25.355l18.543 32.343c-65.152 21.705-146.671 33.377-228.5 35.047 6.548.134 13.097.211 19.641.217h.718c88.319-.073 177.776-11.822 248.141-35.263z" fill="#7e7b8f"/></g></g><g><g><path d="m121.841 248.179h64.327v111.821h-64.327z" fill="#fff"/></g></g><g><g><path d="m223.761 248.179h64.327v111.821h-64.327z" fill="#fff"/></g></g><g><g><path d="m325.68 248.179h64.327v111.821h-64.327z" fill="#fff"/></g></g><path d="m40.924 360h430v34.81h-430z" fill="#ffe4b0"/><path d="m430.924 360h40v34.81h-40z" fill="#ffdd9c"/><path d="m23.065 394.81h465.719v34.81h-465.719z" fill="#ffcb69"/><path d="m448.783 394.81h40v34.81h-40z" fill="#ffc14d"/><path d="m186.168 429.621h139.512v34.81h-139.512z" fill="#ffe4b0"/></g></g><path d="m510.93 130.426-18.543-32.343c-1.32-2.296-3.849-3.77-6.506-3.77h-25.355c-31.551 0-44.384-26.261-56.681-50.31-1.571-3.072-5.037-4.676-8.393-3.887-64.628 15.178-131.187 19.656-197.825 13.309-9.651-.922-11.076 14.012-1.422 14.933 66.299 6.315 132.525 2.169 196.946-12.321 6.633 13.966 13.824 28.269 25.977 38.276h-27.118c-4.142 0-7.5 3.358-7.5 7.5s3.358 7.5 7.5 7.5h89.526l11.78 20.547c-130.571 42.401-344.217 42.4-474.784 0l11.78-20.547h89.526c4.142 0 7.5-3.358 7.5-7.5s-3.358-7.5-7.5-7.5h-27.118c12.153-10.008 19.345-24.311 25.977-38.277 12.245 2.75 24.751 5.159 37.259 7.175 9.573 1.55 11.961-13.265 2.388-14.809-14.119-2.276-28.232-5.064-41.949-8.286-3.363-.791-6.822.815-8.393 3.887-12.275 24.007-25.165 50.31-56.681 50.31h-25.354c-2.643 0-5.192 1.483-6.506 3.77l-18.543 32.343c-2.047 4.922-.669 8.537 4.136 10.846 22.24 7.409 46.603 13.739 72.513 18.925v192.303h-36.643c-4.142 0-7.5 3.358-7.5 7.5v27.311h-10.359c-4.142 0-7.5 3.358-7.5 7.5v34.81c0 4.142 3.358 7.5 7.5 7.5h155.603v27.31c0 4.142 3.358 7.5 7.5 7.5h139.512c4.142 0 7.5-3.358 7.5-7.5 0-9.103 0-18.207 0-27.31h61.744c9.697 0 9.697-15 0-15h-61.744v-19.81h137.744 10.359v19.81h-47.359c-9.697 0-9.697 15 0 15h54.859c4.142 0 7.5-3.358 7.5-7.5v-34.81c0-4.142-3.358-7.5-7.5-7.5h-10.359v-27.311c0-4.142-3.358-7.5-7.5-7.5h-36.643v-192.302c25.91-5.186 50.273-11.516 72.513-18.925 4.805-2.31 6.183-5.925 4.136-10.847zm-254.64 46.494c16.896-.014 33.663-.451 50.207-1.285v27.041h-101.146v-27.041c16.967.855 33.951 1.247 50.939 1.285zm-65.939-2.16v27.916h-97.785v-39.634c30.912 5.536 63.798 9.483 97.785 11.718zm-141.927 192.74h130.244v19.811h-130.244zm130.244-111.821v40.911h-17.163v-40.911zm101.919 0v40.911h-17.164v-40.911zm-17.163 96.821v-40.91h17.164v40.91zm-15-55.91h-17.164v-40.911h17.164zm-17.164 15h17.164v40.91h-17.164zm86.92 55.91v19.811h-124.512v-19.811zm64.327-111.821v40.911h-17.164v-40.911zm-17.164 96.821v-40.91h17.164v40.91zm-32.163 0v-40.91h17.163v40.91zm17.163-55.91h-17.163v-40.911h17.163zm-188.839 55.91v-40.91h17.163v40.91zm-15-55.91h-17.164v-40.911h17.164zm-17.163 15h17.164v40.91h-17.164zm-98.776 90.72h10.359 137.744v19.81h-148.103zm287.615 54.621h-124.512v-19.81h124.512zm0-34.81h-124.512v-19.81h124.512zm145.244-34.811h-130.244v-19.81h130.244zm-65.917-34.81v-104.321c0-4.142-3.358-7.5-7.5-7.5h-64.327c-4.142 0-7.5 3.358-7.5 7.5v104.321h-22.593v-104.321c0-4.142-3.358-7.5-7.5-7.5h-64.327c-4.142 0-7.5 3.358-7.5 7.5v104.321h-22.593v-104.321c0-4.142-3.358-7.5-7.5-7.5h-64.327c-4.142 0-7.5 3.358-7.5 7.5v104.321h-21.774v-134.825h326.715v134.825zm21.774-149.825h-97.785v-27.915c33.986-2.235 66.873-6.182 97.785-11.719z"/></g></svg>